<svg fill="#000000" width="180px" height="180px" viewBox="0 0 22 22" xmlns="http://www.w3.org/2000/svg" id="memory-email"><g id="SVGRepo_bgCarrier" stroke-width="0"></g><g id="SVGRepo_tracerCarrier" stroke-linecap="round" stroke-linejoin="round" stroke="#66FF66" stroke-width="1.7600000000000002"><path d="M1 5H2V4H20V5H21V18H20V19H2V18H1V5M3 17H19V9H18V10H16V11H14V12H12V13H10V12H8V11H6V10H4V9H3V17M19 6H3V7H5V8H7V9H9V10H13V9H15V8H17V7H19V6Z"></path></g><g id="SVGRepo_iconCarrier"><path d="M1 5H2V4H20V5H21V18H20V19H2V18H1V5M3 17H19V9H18V10H16V11H14V12H12V13H10V12H8V11H6V10H4V9H3V17M19 6H3V7H5V8H7V9H9V10H13V9H15V8H17V7H19V6Z"></path></g></svg>