<svg fill="#000000" height="64px" width="64px" version="1.1" id="XMLID_198_" xmlns="http://www.w3.org/2000/svg" xmlns:xlink="http://www.w3.org/1999/xlink" viewBox="0 0 27 27" xml:space="preserve"><g id="SVGRepo_bgCarrier" stroke-width="0"></g><g id="SVGRepo_tracerCarrier" stroke-linecap="round" stroke-linejoin="round" stroke="#66FF66" stroke-width="1.9200000000000004"> <g id="java"> <g> <path d="M9,24c-5,0-9-4-9-9V8h18v2.5c0.6-0.3,1.3-0.5,2-0.5c2.2,0,4,1.8,4,4s-1.8,4-4,4c-0.9,0-1.6-0.3-2.3-0.7 C16.7,21.1,13.2,24,9,24z M2,10v5c0,3.9,3.1,7,7,7s7-3.1,7-7v-5H2z M18,14c0,1.1,0.9,2,2,2s2-0.9,2-2s-0.9-2-2-2S18,12.9,18,14z M13,6h-2V2h2V6z M10,6H8V0h2V6z M7,6H5V2h2V6z"></path> </g> </g> </g><g id="SVGRepo_iconCarrier"> <g id="java"> <g> <path d="M9,24c-5,0-9-4-9-9V8h18v2.5c0.6-0.3,1.3-0.5,2-0.5c2.2,0,4,1.8,4,4s-1.8,4-4,4c-0.9,0-1.6-0.3-2.3-0.7 C16.7,21.1,13.2,24,9,24z M2,10v5c0,3.9,3.1,7,7,7s7-3.1,7-7v-5H2z M18,14c0,1.1,0.9,2,2,2s2-0.9,2-2s-0.9-2-2-2S18,12.9,18,14z M13,6h-2V2h2V6z M10,6H8V0h2V6z M7,6H5V2h2V6z"></path> </g> </g> </g></svg>