<!DOCTYPE svg PUBLIC "-//W3C//DTD SVG 1.1//EN" "http://www.w3.org/Graphics/SVG/1.1/DTD/svg11.dtd">
<!-- Uploaded to: SVG Repo, www.svgrepo.com, Transformed by: SVG Repo Mixer Tools -->
<svg fill="#000000" width="50px" height="50px" viewBox="-3.2 -3.2 38.40 38.40" id="icon" xmlns="http://www.w3.org/2000/svg" stroke="#000000" stroke-width="0.48">

<g id="SVGRepo_bgCarrier" stroke-width="0" transform="translate(2.08,2.08), scale(0.87)">

<rect x="-3.2" y="-3.2" width="38.40" height="38.40" rx="8.064" fill="#00000" strokewidth="0"/>

</g>

<g id="SVGRepo_tracerCarrier" stroke-linecap="round" stroke-linejoin="round" stroke="#66FF66" stroke-width="2.56">

<defs>

<style>.cls-1{fill:none;}</style>

</defs>

<title>SQL</title>

<polygon points="24 21 24 9 22 9 22 23 30 23 30 21 24 21"/>

<path d="M18,9H14a2,2,0,0,0-2,2V21a2,2,0,0,0,2,2h1v2a2,2,0,0,0,2,2h2V25H17V23h1a2,2,0,0,0,2-2V11A2,2,0,0,0,18,9ZM14,21V11h4V21Z"/>

<path d="M8,23H2V21H8V17H4a2,2,0,0,1-2-2V11A2,2,0,0,1,4,9h6v2H4v4H8a2,2,0,0,1,2,2v4A2,2,0,0,1,8,23Z"/>

<rect id="_Transparent_Rectangle_" data-name="&lt;Transparent Rectangle&gt;" class="cls-1" width="32" height="32"/>

</g>

<g id="SVGRepo_iconCarrier">

<defs>

<style>.cls-1{fill:none;}</style>

</defs>

<title>SQL</title>

<polygon points="24 21 24 9 22 9 22 23 30 23 30 21 24 21"/>

<path d="M18,9H14a2,2,0,0,0-2,2V21a2,2,0,0,0,2,2h1v2a2,2,0,0,0,2,2h2V25H17V23h1a2,2,0,0,0,2-2V11A2,2,0,0,0,18,9ZM14,21V11h4V21Z"/>

<path d="M8,23H2V21H8V17H4a2,2,0,0,1-2-2V11A2,2,0,0,1,4,9h6v2H4v4H8a2,2,0,0,1,2,2v4A2,2,0,0,1,8,23Z"/>

<rect id="_Transparent_Rectangle_" data-name="&lt;Transparent Rectangle&gt;" class="cls-1" width="32" height="32"/>

</g>

</svg>